<svg width="48" height="48" viewBox="0 0 48 48" fill="none" xmlns="http://www.w3.org/2000/svg">
<path d="M7.69814 21.1708C7.62335 21.1708 7.60466 21.1334 7.64205 21.0773L8.03467 20.5725C8.07206 20.5164 8.16555 20.479 8.24033 20.479H14.9149C14.9897 20.479 15.0084 20.5351 14.971 20.5912L14.6532 21.0773C14.6158 21.1334 14.5223 21.1895 14.4662 21.1895L7.69814 21.1708Z" fill="#2DBCAF"/>
<path d="M4.8749 22.8909C4.80011 22.8909 4.78141 22.8535 4.81881 22.7974L5.21143 22.2926C5.24882 22.2365 5.3423 22.1991 5.41709 22.1991H13.9426C14.0174 22.1991 14.0548 22.2552 14.0361 22.3113L13.8865 22.76C13.8678 22.8348 13.7931 22.8722 13.7183 22.8722L4.8749 22.8909Z" fill="#2DBCAF"/>
<path d="M9.39949 24.6108C9.32471 24.6108 9.30601 24.5547 9.3434 24.4987L9.60515 24.0312C9.64255 23.9752 9.71733 23.9191 9.79212 23.9191H13.5314C13.6062 23.9191 13.6436 23.9752 13.6436 24.0499L13.6062 24.4987C13.6062 24.5734 13.5314 24.6295 13.4753 24.6295L9.39949 24.6108Z" fill="#2DBCAF"/>
<path d="M28.8061 20.8342C27.6283 21.1334 26.8243 21.3577 25.6651 21.6569C25.3847 21.7316 25.366 21.7503 25.1229 21.4699C24.8425 21.1521 24.6368 20.9464 24.2442 20.7594C23.0663 20.1798 21.9259 20.3481 20.8602 21.0399C19.5888 21.8625 18.9344 23.0778 18.9531 24.5922C18.9718 26.0879 20.0001 27.3219 21.4772 27.5275C22.7485 27.6958 23.8142 27.2471 24.6555 26.2936C24.8238 26.0879 24.9734 25.8635 25.1603 25.6018C24.4873 25.6018 23.6459 25.6018 21.5519 25.6018C21.1593 25.6018 21.0658 25.3587 21.1967 25.0409C21.4398 24.4613 21.8885 23.4891 22.1502 23.003C22.2063 22.8908 22.3372 22.7039 22.6176 22.7039C23.5711 22.7039 27.0861 22.7039 29.4231 22.7039C29.3857 23.2087 29.3857 23.7135 29.3109 24.2183C29.1053 25.5644 28.6005 26.7984 27.7778 27.8827C26.4317 29.6589 24.6742 30.762 22.4494 31.0611C20.6171 31.3042 18.9158 30.9489 17.42 29.8272C16.0365 28.7802 15.2513 27.3966 15.0456 25.6766C14.8026 23.6387 15.4008 21.8064 16.6348 20.1985C17.9622 18.4598 19.7197 17.3567 21.8698 16.9641C23.6272 16.6462 25.3099 16.8519 26.8243 17.8802C27.8152 18.5346 28.5257 19.432 28.9931 20.5164C29.1053 20.6846 29.0305 20.7781 28.8061 20.8342Z" fill="#2DBCAF"/>
<path d="M34.9945 31.1733C33.2932 31.1359 31.7414 30.6498 30.4326 29.528C29.3296 28.5745 28.6378 27.3592 28.4134 25.9196C28.0769 23.8069 28.6565 21.9373 29.9278 20.2733C31.2927 18.4784 32.9379 17.5436 35.1628 17.151C37.0698 16.8145 38.8647 17.0014 40.4913 18.1045C41.9683 19.1141 42.8844 20.479 43.1275 22.2738C43.4453 24.7978 42.7161 26.8544 40.9774 28.6119C39.7434 29.8645 38.229 30.6498 36.4903 31.005C35.9855 31.0985 35.4806 31.1172 34.9945 31.1733ZM39.4443 23.6199C39.4256 23.3769 39.4256 23.1899 39.3882 23.003C39.0517 21.152 37.3503 20.105 35.5741 20.5163C33.8354 20.909 32.7136 22.0121 32.3023 23.7695C31.9657 25.2278 32.6762 26.7048 34.0223 27.3031C35.0506 27.7518 36.0789 27.6957 37.0698 27.1909C38.5469 26.4244 39.3508 25.2278 39.4443 23.6199Z" fill="#2DBCAF"/>
</svg>
