<svg width="1303" height="1768" viewBox="0 0 1303 1768" fill="none" xmlns="http://www.w3.org/2000/svg">
<path d="M18.3666 956.023C20.8535 1008.25 73.6318 983.655 96.5669 967.629C119.502 951.602 124.199 965.142 127.515 934.469C129.553 914.458 130.383 894.342 130.002 874.23C95.1795 870.669 60.2227 879.579 31.3539 899.376C16.9849 909.876 -9.81871 943.036 18.0902 954.641" fill="#F6D2A2"/>
<path d="M45.4465 993.88C40.2823 993.951 35.1727 992.816 30.5249 990.564C25.2086 987.496 20.8138 983.057 17.8001 977.71C14.7863 972.363 13.2641 966.304 13.3927 960.168C9.97426 958.464 7.04184 955.925 4.86788 952.785C2.69392 949.644 1.34897 946.006 0.958008 942.207C1.94874 933.011 4.93467 924.142 9.70735 916.219C14.48 908.296 20.9244 901.511 28.5906 896.336C58.4017 875.813 94.5583 866.603 130.555 870.362H134.7V874.507C135.277 890.27 134.816 906.055 133.318 921.758V935.575C131.937 957.128 127.792 960.444 116.739 963.207C110.842 965.033 105.253 967.734 100.159 971.221C84.2597 983.502 65.3738 991.324 45.4465 993.88V993.88ZM115.633 879.757C86.6135 879.308 58.1892 888.009 34.3935 904.626C28.2106 908.896 22.9633 914.382 18.9723 920.748C14.9814 927.115 12.3306 934.228 11.1821 941.654C11.5213 944.236 12.5832 946.669 14.2455 948.674C15.9077 950.678 18.1026 952.172 20.5772 952.983H23.3404V956.023C22.9412 960.82 23.802 965.638 25.8376 970C27.8733 974.362 31.0131 978.117 34.9461 980.892C45.4127 982.516 56.108 981.823 66.2776 978.863C76.4472 975.903 85.8435 970.747 93.8036 963.76C99.5687 959.718 105.901 956.551 112.594 954.365C119.778 951.878 121.436 951.325 122.542 934.193V920.377C123.835 906.6 124.389 892.764 124.199 878.928H115.633V879.757Z" fill="#010101"/>
<path d="M18.3666 956.023C26.2649 954.274 33.473 950.238 39.091 944.417Z" fill="#C7B199"/>
<path d="M18.3665 960.997C17.084 961.4 15.6939 961.277 14.502 960.655C13.3102 960.033 12.4141 958.963 12.011 957.681C11.608 956.398 11.7309 955.008 12.3527 953.816C12.9746 952.624 14.0444 951.728 15.327 951.325H18.6429C24.4819 949.971 29.7778 946.89 33.8408 942.483C34.24 941.957 34.7389 941.514 35.309 941.181C35.8791 940.847 36.5094 940.63 37.1637 940.54C37.818 940.45 38.4836 940.49 39.1224 940.657C39.7613 940.825 40.361 941.116 40.8871 941.516C41.4133 941.915 41.8557 942.414 42.1891 942.984C42.5224 943.554 42.7402 944.184 42.83 944.838C42.9198 945.493 42.8799 946.158 42.7125 946.797C42.5451 947.436 42.2534 948.036 41.8543 948.562C36.6307 954.564 29.6832 958.81 21.9588 960.72H18.3665V960.997Z" fill="#010101"/>
<path d="M138.845 334.565C-60.939 279.3 87.7244 24.2508 249.375 128.702L138.845 334.565Z" fill="#74CDDD"/>
<path d="M141.332 340.368H137.463C80.54 324.341 45.4465 290.629 38.8147 245.588C36.464 221.1 40.9846 196.441 51.8692 174.378C62.7539 152.316 79.5718 133.724 100.435 120.689C123.101 106.349 149.555 99.1559 176.362 100.043C203.168 100.93 229.088 109.856 250.757 125.663L254.625 128.15L141.332 340.368ZM168.964 108.807C146.288 108.836 124.11 115.461 105.133 127.873C85.8223 139.856 70.238 156.99 60.133 177.346C50.0279 197.703 45.803 220.475 47.9335 243.101C54.0126 283.169 84.9612 313.564 135.529 328.762L240.533 130.637C219.293 117.352 194.841 110.093 169.793 109.636L168.964 108.807Z" fill="#010101"/>
<path d="M1026.4 109.636C1184.46 -0.894831 1327.32 247.799 1143.57 312.183L1026.4 109.636Z" fill="#74CDDD"/>
<path d="M1141.36 318.262L1019.77 108.254L1023.37 105.767C1043.6 89.5488 1068.21 79.7298 1094.05 77.5641C1119.89 75.3985 1145.79 80.9845 1168.44 93.6088C1189.81 106.126 1207.29 124.32 1218.95 146.173C1230.61 168.025 1235.98 192.681 1234.48 217.403C1231.71 245.036 1216.79 292.287 1145.22 316.88L1141.36 318.262ZM1033.04 111.017L1145.78 306.104C1166.24 300.554 1184.62 289.106 1198.62 273.186C1212.63 257.266 1221.64 237.578 1224.53 216.574C1225.98 193.678 1221.03 170.831 1210.25 150.581C1199.47 130.332 1183.27 113.477 1163.46 101.899C1143.27 90.3206 1120.09 85.006 1096.86 86.6296C1073.64 88.2532 1051.42 96.7418 1033.04 111.017V111.017Z" fill="#010101"/>
<path d="M1060.39 1598.21C1100.46 1623.07 1173.96 1698.24 1113.72 1734.71C1055.97 1787.76 1023.37 1676.41 972.521 1661.21C982.287 1645.43 995.08 1631.74 1010.16 1620.93C1025.24 1610.11 1042.31 1602.39 1060.39 1598.21Z" fill="#F6D2A2"/>
<path d="M1083.05 1753.78H1080.84C1057.91 1752.4 1039.12 1730.01 1020.88 1708.74C1008.28 1690.4 991.14 1675.65 971.139 1665.91L964.508 1663.97L968.652 1657.06C989.207 1624.28 1021.88 1600.94 1059.56 1592.13H1063.16C1088.85 1608.15 1141.91 1654.58 1141.63 1696.58C1141.47 1704.87 1139.08 1712.98 1134.7 1720.03C1130.33 1727.08 1124.13 1732.82 1116.76 1736.64C1108.2 1746.55 1096.1 1752.7 1083.05 1753.78ZM980.258 1658.72C999.003 1669.75 1015.28 1684.51 1028.06 1702.1C1040.14 1721.95 1058.98 1736.77 1081.12 1743.83C1086.35 1743.61 1091.49 1742.34 1096.24 1740.11C1100.98 1737.88 1105.24 1734.73 1108.75 1730.84C1114.78 1727.9 1119.87 1723.34 1123.48 1717.69C1127.09 1712.03 1129.07 1705.49 1129.2 1698.79C1129.2 1665.08 1086.64 1622.8 1057.08 1603.73C1025.58 1611.83 998.263 1631.45 980.534 1658.72H980.258Z" fill="#010101"/>
<path d="M1113.72 1739.96C1112.8 1739.95 1111.9 1739.69 1111.12 1739.2C1110.34 1738.72 1109.71 1738.02 1109.3 1737.2C1106.38 1731.08 1103.8 1724.81 1101.57 1718.41C1098.2 1705.9 1091.96 1694.35 1083.33 1684.7C1082.86 1684.24 1082.48 1683.7 1082.22 1683.1C1081.95 1682.5 1081.81 1681.85 1081.8 1681.2C1081.79 1680.55 1081.9 1679.9 1082.14 1679.29C1082.38 1678.68 1082.74 1678.12 1083.19 1677.65C1083.64 1677.18 1084.19 1676.8 1084.78 1676.54C1085.38 1676.27 1086.03 1676.13 1086.68 1676.12C1087.34 1676.11 1087.99 1676.22 1088.6 1676.46C1089.21 1676.7 1089.76 1677.06 1090.24 1677.51C1099.78 1687.93 1106.78 1700.41 1110.68 1713.99C1112.85 1720.01 1115.34 1725.91 1118.14 1731.67C1118.72 1732.84 1118.81 1734.2 1118.4 1735.44C1117.99 1736.68 1117.1 1737.71 1115.93 1738.3L1113.72 1739.96Z" fill="#010101"/>
<path d="M342.773 1683.04C295.522 1690.22 268.994 1732.78 229.756 1754.33C225.639 1758.13 220.653 1760.86 215.234 1762.29C209.816 1763.72 204.13 1763.79 198.675 1762.51C193.221 1761.23 188.164 1758.63 183.947 1754.94C179.731 1751.25 176.484 1746.58 174.491 1741.34C171.748 1741.41 169.027 1740.84 166.537 1739.69C164.046 1738.54 161.851 1736.84 160.122 1734.71C125.857 1679.44 195.768 1641.04 232.519 1613.96C284.192 1604.01 315.97 1647.94 342.773 1683.04V1683.04Z" fill="#F6D2A2"/>
<path d="M204.887 1767.59C201.952 1767.98 198.979 1767.98 196.044 1767.59C190.858 1765.91 186.06 1763.22 181.932 1759.66C177.803 1756.1 174.428 1751.75 172.004 1746.87C169.335 1746.85 166.711 1746.19 164.354 1744.94C161.997 1743.68 159.976 1741.88 158.464 1739.68C125.305 1687.46 181.675 1647.94 218.979 1621.69L231.967 1612.3C284.192 1601.8 317.352 1644.9 343.879 1679.72L351.34 1689.67H343.05C316.385 1696.04 292.116 1709.95 273.139 1729.74C260.413 1741.44 246.524 1751.81 231.69 1760.68C223.487 1765.22 214.263 1767.6 204.887 1767.59V1767.59ZM171.728 1735.54C173.639 1735.12 175.619 1735.12 177.53 1735.54H178.912L181.123 1739.96C182.92 1743.87 185.485 1747.37 188.666 1750.27C191.846 1753.17 195.578 1755.39 199.637 1756.82C209.359 1758.28 219.269 1755.9 227.269 1750.18C241.6 1741.62 255.025 1731.62 267.336 1720.34C285.988 1701.7 308.818 1687.77 333.931 1679.72C308.509 1646.56 278.666 1610.64 235.283 1618.93L222.848 1627.77C184.715 1655.4 137.463 1688.01 164.819 1731.95C165.433 1732.99 166.273 1733.88 167.278 1734.55C168.283 1735.22 169.426 1735.65 170.622 1735.82L171.728 1735.54Z" fill="#010101"/>
<path d="M175.32 1746.59C174.5 1746.64 173.682 1746.48 172.938 1746.14C172.193 1745.79 171.546 1745.27 171.053 1744.61C170.561 1743.95 170.239 1743.19 170.115 1742.37C169.992 1741.56 170.071 1740.73 170.346 1739.96C172.383 1726.69 177.915 1714.19 186.373 1703.76C190.373 1698.28 193.887 1692.45 196.873 1686.35C197.423 1685.14 198.43 1684.2 199.674 1683.74C200.918 1683.27 202.296 1683.32 203.505 1683.87C204.714 1684.42 205.656 1685.42 206.122 1686.67C206.589 1687.91 206.542 1689.29 205.992 1690.5C202.783 1697.17 198.992 1703.55 194.663 1709.56C187.367 1718.95 182.694 1730.11 181.123 1741.89C181.093 1742.6 180.914 1743.29 180.597 1743.92C180.28 1744.55 179.832 1745.11 179.283 1745.55C178.734 1746 178.096 1746.32 177.413 1746.5C176.73 1746.68 176.016 1746.71 175.32 1746.59V1746.59ZM147.135 264.378C119.502 250.562 101.541 231.495 117.568 201.1C133.595 170.704 160.122 175.954 186.649 189.77L147.135 264.378ZM1101.84 237.851C1129.47 224.035 1147.44 204.968 1131.41 174.572C1115.38 144.176 1088.85 149.427 1062.33 163.243L1101.84 237.851Z" fill="#010101"/>
<path d="M1283.39 949.391C1280.9 1001.62 1228.12 977.024 1205.19 960.997C1182.25 944.97 1177.56 958.51 1174.24 927.838C1172.2 907.826 1171.37 887.71 1171.75 867.598C1206.57 864.037 1241.53 872.948 1270.4 892.744C1284.77 903.245 1311.57 936.404 1283.66 948.009" fill="#F6D2A2"/>
<path d="M1256.31 986.142C1237.32 984.078 1219.16 977.233 1203.53 966.247C1198.44 962.76 1192.85 960.059 1186.95 958.233C1175.9 954.365 1171.75 951.049 1170.37 930.601V916.784C1168.87 901.081 1168.41 885.296 1168.99 869.533V862.901H1173.13C1209.13 859.142 1245.29 868.353 1275.1 888.875C1282.76 894.05 1289.21 900.835 1293.98 908.758C1298.75 916.681 1301.74 925.55 1302.73 934.746C1302.34 938.545 1300.99 942.184 1298.82 945.324C1296.65 948.464 1293.71 951.003 1290.3 952.707C1290.42 958.843 1288.9 964.902 1285.89 970.249C1282.87 975.596 1278.48 980.035 1273.16 983.103C1267.9 985.562 1262.1 986.61 1256.31 986.142V986.142ZM1175.9 872.296C1175.71 886.132 1176.26 899.968 1177.55 913.745V927.561C1177.55 944.417 1180.04 944.97 1187.5 947.733C1194.2 949.92 1200.53 953.086 1206.29 957.128C1214.24 964.132 1223.64 969.298 1233.81 972.259C1243.98 975.22 1254.68 975.903 1265.15 974.26C1269.08 971.485 1272.22 967.73 1274.26 963.368C1276.29 959.006 1277.16 954.188 1276.76 949.391V946.075H1279.52C1281.99 945.264 1284.19 943.77 1285.85 941.765C1287.51 939.761 1288.58 937.327 1288.91 934.746C1287.77 927.32 1285.12 920.206 1281.12 913.84C1277.13 907.473 1271.89 901.988 1265.7 897.718C1239.52 879.289 1207.85 870.323 1175.9 872.296V872.296Z" fill="#010101"/>
<path d="M1283.39 949.391C1275.58 947.875 1268.39 944.132 1262.66 938.614Z" fill="#C7B199"/>
<path d="M1283.39 954.365H1278.14C1270.4 951.904 1263.63 947.07 1258.79 940.549C1258.4 940.022 1258.1 939.423 1257.94 938.784C1257.77 938.145 1257.73 937.479 1257.82 936.825C1257.91 936.171 1258.13 935.541 1258.46 934.97C1258.79 934.4 1259.24 933.901 1259.76 933.502C1260.29 933.103 1260.89 932.811 1261.53 932.644C1262.17 932.477 1262.83 932.437 1263.49 932.526C1264.14 932.616 1264.77 932.834 1265.34 933.167C1265.91 933.501 1266.41 933.943 1266.81 934.469C1270.87 938.876 1276.17 941.957 1282.01 943.312H1285.32C1286.79 943.568 1288.09 944.397 1288.95 945.614C1289.8 946.832 1290.14 948.34 1289.88 949.805C1289.63 951.271 1288.8 952.575 1287.58 953.43C1286.36 954.285 1284.85 954.621 1283.39 954.365V954.365Z" fill="#010101"/>
<path d="M630.982 4.0791C831.042 4.0791 1017.84 31.7117 1116.21 225.14C1203.81 440.398 1171.48 672.789 1186.12 900.205C1197.73 1095.57 1223.15 1321.33 1132.51 1502.6C1037.73 1692.71 798.435 1739.96 602.244 1733.6C448.054 1728.08 261.81 1678.34 174.767 1536.86C72.5265 1371.06 120.884 1125.69 128.344 941.93C137.187 724.185 69.2106 505.611 140.779 292.287C215.111 71.2263 415.171 21.2113 630.705 4.0791" fill="#74CDDD"/>
<path d="M636.232 1739.96H601.967C519.6 1737.65 438.221 1721.39 361.287 1691.88C282.96 1663.49 215.958 1610.45 170.346 1540.73C87.4481 1406.99 102.37 1222.4 115.081 1059.37C118.397 1018.47 121.436 979.51 122.818 943.035C124.282 865.717 120.96 788.382 112.87 711.474C101.264 573.311 89.106 430.45 135.529 292.011C150.507 243.373 175.437 198.383 208.737 159.898C242.036 121.413 282.977 90.2753 328.957 68.4631C403.565 31.988 494.753 10.9872 628.771 0.486818C826.068 -0.894813 1020.6 26.7378 1120.63 222.653C1184.74 380.159 1185.57 549.271 1186.67 712.856C1186.67 774.2 1186.67 837.479 1191.09 899.376C1191.09 918.166 1193.31 937.233 1194.69 956.299C1206.29 1135.63 1219.56 1339.29 1136.93 1503.98C1033.59 1710.12 773.842 1739.96 636.232 1739.96ZM630.982 9.05293C422.908 26.7378 220.085 71.5027 145.477 293.945C99.6064 430.45 111.765 572.206 123.094 708.435C131.211 785.71 134.533 863.415 133.042 941.101C131.66 977.853 128.344 1016.81 125.305 1057.99C112.594 1219.36 97.6722 1402.57 178.636 1533.27C212.624 1588.53 322.049 1717.58 602.244 1726.7C723.551 1731.12 1016.73 1717.3 1127.26 1497.9C1208.5 1335.42 1195.52 1133.42 1183.91 955.194C1183.91 935.851 1181.42 916.784 1180.32 898.271C1177.28 838.032 1175.9 774.477 1175.9 713.132C1175.9 550.652 1174.24 381.541 1110.68 226.798C1069.8 142.68 997.431 78.0515 909.242 46.9096C819.329 18.5046 725.216 5.70081 630.982 9.05293V9.05293Z" fill="#010101"/>
<path d="M666.075 272.392C701.998 481.018 1042.98 426.029 994.074 215.469C950.139 26.7379 654.193 78.9636 666.075 272.392Z" fill="white"/>
<path d="M828.279 408.621C807.038 408.71 785.932 405.254 765.829 398.397C738.478 389.348 714.202 372.831 695.744 350.711C677.286 328.591 665.383 301.75 661.378 273.221C659.521 250.888 662.401 228.416 669.83 207.273C677.258 186.131 689.067 166.795 704.485 150.532C734.056 120.193 773.001 100.721 815.015 95.2667C853.521 89.1724 892.961 95.9725 927.203 114.61C945.469 125.278 961.283 139.675 973.614 156.862C985.946 174.05 994.517 193.642 998.772 214.363C1006.21 240.562 1006.16 268.32 998.644 294.495C991.124 320.671 976.427 344.218 956.218 362.474C920.564 392.837 875.105 409.233 828.279 408.621V408.621ZM671.049 271.839C674.832 298.611 686.021 323.793 703.354 344.544C720.687 365.295 743.474 380.789 769.145 389.278C799.728 399.505 832.421 401.725 864.106 395.727C895.791 389.729 925.41 375.712 950.139 355.013C968.764 337.824 982.302 315.842 989.272 291.473C996.241 267.105 996.373 241.289 989.653 216.85C981.172 179.27 958.33 146.497 926.007 125.533C893.685 104.57 854.445 97.0793 816.673 104.662C775.454 108.19 737.22 127.602 710.048 158.796C682.875 189.991 668.891 230.526 671.049 271.839V271.839Z" fill="#010101"/>
<path d="M258.494 306.38C304.917 487.926 595.612 441.227 584.835 259.128C571.848 40.8304 214.006 82.003 258.494 306.38Z" fill="white"/>
<path d="M413.789 426.029C384.232 426.251 355.083 419.13 328.957 405.305C310.255 395.17 293.913 381.188 281.005 364.28C268.098 347.372 258.919 327.921 254.073 307.209C246.867 278.943 247.932 249.203 257.141 221.525C266.351 193.847 283.317 169.398 306.022 151.085C333.475 130.138 365.97 116.807 400.224 112.441C434.479 108.074 469.279 112.825 501.108 126.215C527.001 137.536 549.098 156.053 564.773 179.566C580.448 203.078 589.042 230.597 589.533 258.852C595.336 355.566 518.517 411.937 445.014 424.648C434.657 425.914 424.218 426.376 413.789 426.029V426.029ZM264.021 305.275C273.585 343.686 297.861 376.799 331.616 397.476C365.37 418.152 405.898 424.735 444.462 415.805C514.096 404.752 586.77 351.697 581.243 260.786C580.909 234.198 572.91 208.271 558.206 186.116C543.502 163.962 522.717 146.521 498.345 135.887C468.081 123.184 435.001 118.692 402.446 122.865C369.89 127.037 339.012 139.726 312.93 159.651C291.807 176.787 275.993 199.577 267.333 225.362C258.673 251.146 257.524 278.862 264.021 305.275V305.275Z" fill="#010101"/>
<path d="M706.142 524.125C708.802 552.894 708.802 581.846 706.142 610.615C698.053 620.856 686.6 627.904 673.812 630.51C665.948 629.303 658.512 626.14 652.188 621.312C645.863 616.484 640.852 610.146 637.614 602.878C635.839 570.257 636.671 537.547 640.101 505.058L706.142 524.125Z" fill="white"/>
<path d="M676.852 634.656H675.47C666.686 633.291 658.396 629.707 651.385 624.243C644.373 618.779 638.872 611.615 635.403 603.431C633.108 581.107 633.108 558.607 635.403 536.283C635.403 526.059 637.061 515.283 637.337 504.782V496.492L711.945 519.428V524.125C711.945 532.967 711.945 542.363 713.327 551.758C715.821 571.483 715.821 591.443 713.327 611.168V612.549C710.431 617.278 706.615 621.378 702.106 624.605C697.597 627.833 692.486 630.123 687.076 631.34L678.51 634.656H676.852ZM644.798 599.838C647.562 606.149 651.827 611.689 657.221 615.975C662.615 620.261 668.975 623.164 675.747 624.431L683.484 621.392C691.811 619.387 699.04 614.238 703.656 607.023C705.849 588.666 705.849 570.114 703.656 551.758C703.656 543.192 703.656 534.902 702.274 526.612L647.009 509.756C647.009 518.322 647.009 526.888 645.351 535.178C642.903 556.556 642.625 578.128 644.522 599.562L644.798 599.838Z" fill="#010101"/>
<path d="M338.629 329.868C365.793 329.868 387.815 305.991 387.815 276.537C387.815 247.083 365.793 223.206 338.629 223.206C311.464 223.206 289.443 247.083 289.443 276.537C289.443 305.991 311.464 329.868 338.629 329.868Z" fill="#010101"/>
<path d="M361.011 302.235C367.421 302.235 372.617 296.173 372.617 288.695C372.617 281.217 367.421 275.155 361.011 275.155C354.601 275.155 349.405 281.217 349.405 288.695C349.405 296.173 354.601 302.235 361.011 302.235Z" fill="white"/>
<path d="M750.355 316.604C777.062 316.604 798.712 292.727 798.712 263.273C798.712 233.819 777.062 209.942 750.355 209.942C723.648 209.942 701.998 233.819 701.998 263.273C701.998 292.727 723.648 316.604 750.355 316.604Z" fill="#010101"/>
<path d="M772.184 288.971C778.441 288.971 783.514 282.909 783.514 275.431C783.514 267.953 778.441 261.891 772.184 261.891C765.927 261.891 760.855 267.953 760.855 275.431C760.855 282.909 765.927 288.971 772.184 288.971Z" fill="white"/>
<path d="M567.979 519.98C546.426 571.929 579.861 675.828 638.166 599.286C636.392 566.665 637.223 533.955 640.653 501.466L567.979 519.98Z" fill="white"/>
<path d="M598.099 631.616C593.046 631.664 588.076 630.326 583.73 627.747C560.242 614.207 545.597 558.666 562.177 517.217V515.006L645.074 494.005V500.637C645.074 511.414 645.074 522.191 643.14 532.415C640.89 554.094 640.89 575.948 643.14 597.628V601.22C638.664 609.563 632.225 616.69 624.377 621.986C616.529 627.282 607.51 630.587 598.099 631.616V631.616ZM570.743 524.125C558.861 556.455 568.256 607.023 588.98 618.905C603.902 627.471 620.481 612.549 632.087 597.628C629.985 575.941 629.985 554.102 632.087 532.415C632.087 524.401 632.087 515.835 633.745 507.545L570.743 524.125Z" fill="#010101"/>
<path d="M574.335 419.95C564.37 420.898 554.772 424.197 546.329 429.576C537.887 434.955 530.841 442.259 525.77 450.89C520.699 459.521 517.748 469.232 517.16 479.225C516.572 489.218 518.363 499.208 522.386 508.374C550.018 558.113 611.363 503.953 649.496 508.374C693.431 508.374 729.63 554.797 765 516.664C804.238 474.11 748.144 433.766 704.208 414.147L574.335 419.95Z" fill="#F6D2A2"/>
<path d="M733.775 537.665C719.728 536.495 706.034 532.65 693.431 526.335C679.767 519.588 664.957 515.464 649.772 514.177C633.946 514.171 618.303 517.563 603.902 524.125C572.953 534.902 537.86 547.06 517.964 511.414C513.028 502.54 510.438 492.554 510.438 482.4C510.438 472.245 513.028 462.259 517.964 453.385C523.331 443 531.188 434.107 540.832 427.501C550.476 420.894 561.607 416.781 573.23 415.529L706.142 409.726C738.749 423.542 776.053 448.688 782.409 477.978C783.37 485.129 782.856 492.402 780.897 499.346C778.937 506.291 775.575 512.76 771.017 518.353C766.459 523.947 760.803 528.547 754.397 531.868C747.992 535.19 740.973 537.163 733.775 537.665V537.665ZM650.877 504.229C667.215 505.555 683.154 509.962 697.853 517.217C722.722 527.717 742.341 535.731 762.237 514.177C766.78 510.003 770.199 504.752 772.179 498.909C774.159 493.066 774.636 486.818 773.566 480.742C768.04 455.32 732.946 432.108 704.208 419.95L575.717 425.2C565.827 426.412 556.382 430.014 548.197 435.695C540.012 441.376 533.335 448.965 528.741 457.807C524.653 465.21 522.508 473.528 522.508 481.985C522.508 490.442 524.653 498.761 528.741 506.164C544.492 533.796 572.677 524.678 602.796 514.453C617.92 507.684 634.308 504.199 650.877 504.229V504.229Z" fill="#231F20"/>
<path d="M567.979 418.016C564.94 348.934 697.024 340.092 712.498 398.12C727.972 456.149 574.335 469.412 567.979 418.016Z" fill="#010101"/>
</svg>
