<svg width="1404" height="1523" viewBox="0 0 1404 1523" fill="none" xmlns="http://www.w3.org/2000/svg">
<g clip-path="url(#clip0)">
<path d="M1202 571.5C1202 846.814 978.814 1070 703.5 1070C428.186 1070 205 846.814 205 571.5C205 296.186 428.186 73 703.5 73C978.814 73 1202 296.186 1202 571.5Z" fill="#9AAFC6" stroke="#A8ABC1" stroke-width="22"/>
<g clip-path="url(#clip1)">
<path fill-rule="evenodd" clip-rule="evenodd" d="M466.5 502.501C466.5 344.501 615 276.5 705 276.5V1126.61L707 1127V1292C701.833 1314 690.5 1362.1 686.5 1378.5C685.968 1380.68 685.447 1383.18 684.879 1385.92C680.106 1408.87 671.968 1448 625.5 1448H495L580.5 1424.5C598.167 1421.33 633.3 1407.7 632.5 1378.5C631.813 1353.42 629.109 1229.27 628.571 1147.64C625.631 1175.25 622.123 1239.09 619.618 1284.67L619.618 1284.68C618.498 1305.05 617.579 1321.78 617 1330C614.359 1367.5 609 1403 557.5 1403L440 1401L529.246 1381.14C544.174 1378.47 567.947 1373.17 567.271 1348.5C566.66 1326.23 564.257 1179.4 564.003 1104.84C563.832 1104.77 563.661 1104.69 563.49 1104.61C560.39 1125.93 556.39 1198.73 553.618 1249.17L553.618 1249.17L553.618 1249.18C552.498 1269.55 551.579 1286.28 551 1294.5C548.359 1332 543 1367.5 491.5 1367.5L384.5 1366.5L464.5 1343.5C465.679 1343.11 466.903 1342.71 468.158 1342.31C482.867 1337.55 501.775 1331.43 501.271 1313C501.057 1305.2 499.423 1280.26 497.298 1247.83L497.297 1247.82L497.297 1247.82L497.297 1247.81L497.297 1247.81C494.739 1208.77 491.468 1158.85 489.105 1114.86C475.667 1130.2 457.177 1129.7 448.5 1127L364.5 1115C377.833 1112.67 409.8 1106.7 431 1101.5C452.2 1096.3 464.833 1085.33 468.5 1080.5L486.111 1042.42C486.11 1042.35 486.108 1042.27 486.107 1042.19C479.046 915.58 466.5 653.884 466.5 502.501Z" fill="#F1784A"/>
<circle cx="534.5" cy="648.5" r="142.5" fill="#E9654B"/>
<circle cx="537" cy="651" r="115" fill="white"/>
<circle cx="534" cy="631" r="35" fill="#010101"/>
<path d="M617.5 862.5C617.502 862.536 617.504 862.571 617.506 862.607C618.117 868.491 667.222 907.5 702.5 907.5V1004C671.51 1004 623.531 974.019 617.506 862.607C617.502 862.57 617.5 862.534 617.5 862.5Z" fill="#2F2F2F"/>
<path d="M702.5 948C671.5 948 617.5 925 617.5 862.5C617.5 868 667 907.5 702.5 907.5V948Z" fill="white"/>
<rect x="162" y="470" width="45" height="237" rx="20" fill="#5E6294"/>
</g>
<circle cx="547" cy="204" r="21" fill="#BCCAD9"/>
<g clip-path="url(#clip2)">
<path fill-rule="evenodd" clip-rule="evenodd" d="M937.5 502.501C937.5 344.501 789 276.5 699 276.5V1126.61L697 1127V1292C702.167 1314 713.5 1362.1 717.5 1378.5C718.032 1380.68 718.553 1383.18 719.121 1385.92C723.894 1408.87 732.032 1448 778.5 1448H909L823.5 1424.5C805.833 1421.33 770.7 1407.7 771.5 1378.5C772.187 1353.42 774.891 1229.27 775.429 1147.64C778.369 1175.25 781.877 1239.09 784.382 1284.67L784.382 1284.68C785.502 1305.05 786.421 1321.78 787 1330C789.641 1367.5 795 1403 846.5 1403L964 1401L874.754 1381.14C859.826 1378.47 836.053 1373.17 836.729 1348.5C837.34 1326.23 839.743 1179.4 839.997 1104.84C840.168 1104.77 840.339 1104.69 840.51 1104.61C843.61 1125.93 847.61 1198.73 850.382 1249.17L850.382 1249.17L850.382 1249.18C851.502 1269.55 852.421 1286.28 853 1294.5C855.641 1332 861 1367.5 912.5 1367.5L1019.5 1366.5L939.5 1343.5C938.321 1343.11 937.097 1342.71 935.842 1342.31C921.133 1337.55 902.225 1331.43 902.729 1313C902.943 1305.2 904.577 1280.26 906.702 1247.83L906.703 1247.82L906.703 1247.82L906.703 1247.81L906.703 1247.81C909.261 1208.77 912.532 1158.85 914.895 1114.86C928.333 1130.2 946.823 1129.7 955.5 1127L1039.5 1115C1026.17 1112.67 994.2 1106.7 973 1101.5C951.8 1096.3 939.167 1085.33 935.5 1080.5L917.889 1042.42C917.89 1042.35 917.892 1042.27 917.893 1042.19C924.954 915.58 937.5 653.884 937.5 502.501Z" fill="#F1784A"/>
<path d="M697.5 276.5C787.5 276.5 936 344.501 936 502.501C936 660.501 922.333 488.667 915.5 608C883.833 635.334 853.5 643.5 798 642C798 352.5 767 329 697.5 276.5Z" fill="#EC6F48"/>
<circle r="142.5" transform="matrix(-1 0 0 1 869.5 648.5)" fill="#E9654B"/>
<circle r="115" transform="matrix(-1 0 0 1 867 651)" fill="white"/>
<circle r="35" transform="matrix(-1 0 0 1 870 631)" fill="#010101"/>
<path d="M786.5 862.5C786.498 862.536 786.496 862.571 786.494 862.607C785.883 868.491 736.778 907.5 701.5 907.5V1004C732.49 1004 780.469 974.019 786.494 862.607C786.498 862.57 786.5 862.534 786.5 862.5Z" fill="#2F2F2F"/>
<path d="M701.5 948C732.5 948 786.5 925 786.5 862.5C786.5 868 737 907.5 701.5 907.5V948Z" fill="white"/>
<rect width="45" height="237" rx="20" transform="matrix(-1 0 0 1 1242 470)" fill="#5E6294"/>
</g>
<path d="M384.728 840.042C376.159 846.73 363.751 845.229 357.462 836.363C325.485 791.285 302.441 740.424 289.65 686.531C275.342 626.247 274.199 563.587 286.3 502.822C298.401 442.057 323.461 384.615 359.772 334.412C392.233 289.531 433.004 251.379 479.81 221.989C489.015 216.209 501.052 219.576 506.406 229.036V229.036C511.76 238.496 508.401 250.463 499.222 256.286C457.328 282.86 420.812 317.186 391.667 357.481C358.673 403.1 335.902 455.295 324.906 510.51C313.91 565.726 314.948 622.663 327.95 677.441C339.434 725.827 360.014 771.524 388.531 812.119C394.78 821.014 393.298 833.355 384.728 840.042V840.042Z" fill="#A4B6CB"/>
<circle cx="606" cy="390" r="32" fill="#F4AC87"/>
<path d="M918.5 1045.5C843.813 1089.93 803.241 1094.35 716.373 1096.8C629.505 1099.25 562.572 1078.15 485.5 1038L483.5 998.5C553.643 1035.04 631.942 1061.23 711 1059C790.058 1056.77 852.027 1049.43 920 1009L918.5 1045.5Z" fill="#ED6F49"/>
</g>
<defs>
<clipPath id="clip0">
<rect width="1404" height="1523" fill="white"/>
</clipPath>
<clipPath id="clip1">
<path d="M43 -37H702V1829H43V-37Z" fill="white"/>
</clipPath>
<clipPath id="clip2">
<path d="M1361 -37H702V1829H1361V-37Z" fill="white"/>
</clipPath>
</defs>
</svg>
