<?xml version="1.0" standalone="no"?>
<!DOCTYPE svg PUBLIC "-//W3C//DTD SVG 20010904//EN"
 "http://www.w3.org/TR/2001/REC-SVG-20010904/DTD/svg10.dtd">
<svg version="1.0" xmlns="http://www.w3.org/2000/svg"
 width="200.000000pt" height="200.000000pt" viewBox="0 0 200.000000 200.000000"
 preserveAspectRatio="xMidYMid meet">

<g transform="translate(0.000000,200.000000) scale(0.100000,-0.100000)"
fill="#000000" stroke="none">
<path d="M643 949 c-18 -5 -33 -14 -33 -19 0 -6 -6 -10 -13 -10 -17 0 -66 -54
-89 -99 -26 -48 -24 -158 3 -211 104 -200 396 -166 453 53 18 68 6 131 -38
197 -41 62 -95 91 -180 96 -39 2 -86 -1 -103 -7z m136 -35 c96 -28 151 -100
151 -199 0 -137 -143 -241 -267 -194 -41 15 -93 52 -93 67 0 6 -4 12 -9 12
-12 0 -41 86 -41 119 1 81 66 167 147 194 60 20 50 20 112 1z"/>
<path d="M686 797 c-26 -19 -24 -67 4 -89 27 -22 39 -22 68 -2 26 18 30 65 6
88 -19 19 -54 21 -78 3z"/>
<path d="M1215 942 c-85 -40 -145 -130 -145 -218 0 -81 17 -122 73 -178 68
-67 128 -85 220 -65 53 11 69 20 114 64 61 62 78 110 70 202 -8 78 -40 130
-110 175 -65 41 -158 50 -222 20z m170 -38 c98 -41 152 -148 121 -242 -65
-194 -313 -203 -389 -14 -21 53 -21 80 0 134 43 110 165 165 268 122z"/>
<path d="M1266 785 c-19 -29 -20 -44 -3 -66 34 -45 107 -24 107 31 0 59 -72
84 -104 35z"/>
<path d="M861 304 c-1 -5 8 -38 20 -72 45 -134 161 -174 237 -82 25 31 52 90
52 115 l0 27 -26 -32 c-50 -59 -116 -75 -187 -45 -32 13 -53 34 -84 81 -6 11
-12 14 -12 8z"/>
</g>
</svg>
